<mxfile host="Electron" modified="2023-05-27T16:26:29.014Z" agent="Mozilla/5.0 (Macintosh; Intel Mac OS X 10_15_7) AppleWebKit/537.36 (KHTML, like Gecko) draw.io/21.2.1 Chrome/112.0.5615.87 Electron/24.1.2 Safari/537.36" etag="qFuszx3b_V0SNEN_MYc4" version="21.2.1" type="device">
  <diagram name="Page-1" id="H1nZVYqxkzLZFgEqRADx">
    <mxGraphModel dx="4917" dy="8233" grid="1" gridSize="10" guides="1" tooltips="1" connect="1" arrows="1" fold="1" page="1" pageScale="1" pageWidth="850" pageHeight="1100" math="0" shadow="0">
      <root>
        <mxCell id="0" />
        <mxCell id="1" parent="0" />
        <mxCell id="AsBp8XiL8Dx4Y6rQVwFH-2867" value="R, W: 137, H: 128, ORDER: 13, GC: {52, 28, 22, 35, 6, 16, 24, 10, 3, 32, 29, 76, 61} " style="text;html=1;strokeColor=none;fillColor=none;align=center;verticalAlign=middle;whiteSpace=wrap;rounded=0;fontSize=32;flipV=1;" parent="1" vertex="1">
          <mxGeometry x="1470" width="1370" height="30" as="geometry" />
        </mxCell>
        <mxCell id="AsBp8XiL8Dx4Y6rQVwFH-5017" value="R, W: 137, H: 105, ORDER: 16, GC: {29, 26, 49, 3, 23, 32, 33, 16, 17, 12, 56, 19, 1, 18, 37, 44} " style="text;html=1;strokeColor=none;fillColor=none;align=center;verticalAlign=middle;whiteSpace=wrap;rounded=0;fontSize=32;flipV=1;" parent="1" vertex="1">
          <mxGeometry x="1470" y="1420" width="1370" height="30" as="geometry" />
        </mxCell>
        <mxCell id="AsBp8XiL8Dx4Y6rQVwFH-11349" value="R, W: 137, H: 128, ORDER: 19, GC: {39, 44, 34, 5, 54, 29, 20, 22, 9, 11, 32, 55, 15, 2, 13, 12, 10, 42, 40} " style="text;html=1;strokeColor=none;fillColor=none;align=center;verticalAlign=middle;whiteSpace=wrap;rounded=0;fontSize=32;flipV=1;" parent="1" vertex="1">
          <mxGeometry x="1450" y="2640" width="1370" height="30" as="geometry" />
        </mxCell>
        <mxCell id="AsBp8XiL8Dx4Y6rQVwFH-17879" value="R, W: 137, H: 116, ORDER: 20, GC: {55, 38, 44, 11, 12, 6, 4, 1, 15, 3, 10, 7, 9, 35, 24, 61, 17, 39, 2, 37} " style="text;html=1;strokeColor=none;fillColor=none;align=center;verticalAlign=middle;whiteSpace=wrap;rounded=0;fontSize=32;flipV=1;" parent="1" vertex="1">
          <mxGeometry x="1450" y="4080" width="1370" height="30" as="geometry" />
        </mxCell>
        <mxCell id="AsBp8XiL8Dx4Y6rQVwFH-23153" value="R, W: 137, H: 113, ORDER: 21, GC: {28, 22, 42, 7, 15, 27, 1, 8, 18, 5, 45, 13, 31, 3, 19, 29, 9, 10, 58, 40, 39} " style="text;html=1;strokeColor=none;fillColor=none;align=center;verticalAlign=middle;whiteSpace=wrap;rounded=0;fontSize=32;flipV=1;" parent="1" vertex="1">
          <mxGeometry x="1450" y="5440" width="1370" height="30" as="geometry" />
        </mxCell>
        <mxCell id="AsBp8XiL8Dx4Y6rQVwFH-23263" value="R, W: 137, H: 119, ORDER: 21, GC: {48, 25, 21, 19, 24, 2, 12, 5, 4, 9, 10, 23, 6, 1, 8, 7, 29, 22, 15, 71, 66} " style="text;html=1;strokeColor=none;fillColor=none;align=center;verticalAlign=middle;whiteSpace=wrap;rounded=0;fontSize=32;flipV=1;" parent="1" vertex="1">
          <mxGeometry x="1470" y="6820" width="1370" height="30" as="geometry" />
        </mxCell>
        <mxCell id="AsBp8XiL8Dx4Y6rQVwFH-44241" value="R, W: 137, H: 110, ORDER: 23, GC: {49, 27, 32, 22, 5, 29, 3, 26, 17, 23, 61, 21, 6, 15, 11, 10, 19, 1, 9, 4, 8, 40, 36} " style="text;html=1;strokeColor=none;fillColor=none;align=center;verticalAlign=middle;whiteSpace=wrap;rounded=0;fontSize=32;flipV=1;" parent="1" vertex="1">
          <mxGeometry x="1460" y="8140" width="1370" height="30" as="geometry" />
        </mxCell>
        <mxCell id="JShE3p9Th1xtFd2ULkAl-1" value="" style="group;flipV=1;" vertex="1" connectable="0" parent="1">
          <mxGeometry x="1470" y="50" width="1370" height="1280" as="geometry" />
        </mxCell>
        <mxCell id="761dnnyQ54j-Cl0NHfQN-2868" value="52" style="rounded=0;whiteSpace=wrap;html=1;fontSize=32;" parent="JShE3p9Th1xtFd2ULkAl-1" vertex="1">
          <mxGeometry y="760" width="520" height="520" as="geometry" />
        </mxCell>
        <mxCell id="761dnnyQ54j-Cl0NHfQN-2869" value="28" style="rounded=0;whiteSpace=wrap;html=1;fontSize=32;" parent="JShE3p9Th1xtFd2ULkAl-1" vertex="1">
          <mxGeometry x="520" y="1000" width="280" height="280" as="geometry" />
        </mxCell>
        <mxCell id="761dnnyQ54j-Cl0NHfQN-2870" value="22" style="rounded=0;whiteSpace=wrap;html=1;fontSize=32;" parent="JShE3p9Th1xtFd2ULkAl-1" vertex="1">
          <mxGeometry x="800" y="1060" width="220" height="220" as="geometry" />
        </mxCell>
        <mxCell id="761dnnyQ54j-Cl0NHfQN-2871" value="35" style="rounded=0;whiteSpace=wrap;html=1;fontSize=32;" parent="JShE3p9Th1xtFd2ULkAl-1" vertex="1">
          <mxGeometry x="1020" y="930" width="350" height="350" as="geometry" />
        </mxCell>
        <mxCell id="761dnnyQ54j-Cl0NHfQN-2872" value="6" style="rounded=0;whiteSpace=wrap;html=1;fontSize=32;" parent="JShE3p9Th1xtFd2ULkAl-1" vertex="1">
          <mxGeometry x="800" y="1000" width="60" height="60" as="geometry" />
        </mxCell>
        <mxCell id="761dnnyQ54j-Cl0NHfQN-2873" value="16" style="rounded=0;whiteSpace=wrap;html=1;fontSize=32;" parent="JShE3p9Th1xtFd2ULkAl-1" vertex="1">
          <mxGeometry x="860" y="900" width="160" height="160" as="geometry" />
        </mxCell>
        <mxCell id="761dnnyQ54j-Cl0NHfQN-2874" value="24" style="rounded=0;whiteSpace=wrap;html=1;fontSize=32;" parent="JShE3p9Th1xtFd2ULkAl-1" vertex="1">
          <mxGeometry x="520" y="760" width="240" height="240" as="geometry" />
        </mxCell>
        <mxCell id="761dnnyQ54j-Cl0NHfQN-2875" value="10" style="rounded=0;whiteSpace=wrap;html=1;fontSize=32;" parent="JShE3p9Th1xtFd2ULkAl-1" vertex="1">
          <mxGeometry x="760" y="900" width="100" height="100" as="geometry" />
        </mxCell>
        <mxCell id="761dnnyQ54j-Cl0NHfQN-2876" value="3" style="rounded=0;whiteSpace=wrap;html=1;fontSize=32;" parent="JShE3p9Th1xtFd2ULkAl-1" vertex="1">
          <mxGeometry x="1020" y="900" width="30" height="30" as="geometry" />
        </mxCell>
        <mxCell id="761dnnyQ54j-Cl0NHfQN-2877" value="32" style="rounded=0;whiteSpace=wrap;html=1;fontSize=32;" parent="JShE3p9Th1xtFd2ULkAl-1" vertex="1">
          <mxGeometry x="1050" y="610" width="320" height="320" as="geometry" />
        </mxCell>
        <mxCell id="761dnnyQ54j-Cl0NHfQN-2878" value="29" style="rounded=0;whiteSpace=wrap;html=1;fontSize=32;" parent="JShE3p9Th1xtFd2ULkAl-1" vertex="1">
          <mxGeometry x="760" y="610" width="290" height="290" as="geometry" />
        </mxCell>
        <mxCell id="761dnnyQ54j-Cl0NHfQN-2879" value="76" style="rounded=0;whiteSpace=wrap;html=1;fontSize=32;" parent="JShE3p9Th1xtFd2ULkAl-1" vertex="1">
          <mxGeometry width="760" height="760" as="geometry" />
        </mxCell>
        <mxCell id="761dnnyQ54j-Cl0NHfQN-2880" value="61" style="rounded=0;whiteSpace=wrap;html=1;fontSize=32;" parent="JShE3p9Th1xtFd2ULkAl-1" vertex="1">
          <mxGeometry x="760" width="610" height="610" as="geometry" />
        </mxCell>
        <mxCell id="JShE3p9Th1xtFd2ULkAl-2" value="" style="group;flipV=1;" vertex="1" connectable="0" parent="1">
          <mxGeometry x="1470" y="1470" width="1370" height="1050" as="geometry" />
        </mxCell>
        <mxCell id="761dnnyQ54j-Cl0NHfQN-5018" value="29" style="rounded=0;whiteSpace=wrap;html=1;fontSize=32;" parent="JShE3p9Th1xtFd2ULkAl-2" vertex="1">
          <mxGeometry y="760" width="290" height="290" as="geometry" />
        </mxCell>
        <mxCell id="761dnnyQ54j-Cl0NHfQN-5019" value="26" style="rounded=0;whiteSpace=wrap;html=1;fontSize=32;" parent="JShE3p9Th1xtFd2ULkAl-2" vertex="1">
          <mxGeometry x="290" y="790" width="260" height="260" as="geometry" />
        </mxCell>
        <mxCell id="761dnnyQ54j-Cl0NHfQN-5020" value="49" style="rounded=0;whiteSpace=wrap;html=1;fontSize=32;" parent="JShE3p9Th1xtFd2ULkAl-2" vertex="1">
          <mxGeometry x="550" y="560" width="490" height="490" as="geometry" />
        </mxCell>
        <mxCell id="761dnnyQ54j-Cl0NHfQN-5021" value="3" style="rounded=0;whiteSpace=wrap;html=1;fontSize=32;" parent="JShE3p9Th1xtFd2ULkAl-2" vertex="1">
          <mxGeometry x="290" y="760" width="30" height="30" as="geometry" />
        </mxCell>
        <mxCell id="761dnnyQ54j-Cl0NHfQN-5022" value="23" style="rounded=0;whiteSpace=wrap;html=1;fontSize=32;" parent="JShE3p9Th1xtFd2ULkAl-2" vertex="1">
          <mxGeometry x="320" y="560" width="230" height="230" as="geometry" />
        </mxCell>
        <mxCell id="761dnnyQ54j-Cl0NHfQN-5023" value="32" style="rounded=0;whiteSpace=wrap;html=1;fontSize=32;" parent="JShE3p9Th1xtFd2ULkAl-2" vertex="1">
          <mxGeometry y="440" width="320" height="320" as="geometry" />
        </mxCell>
        <mxCell id="761dnnyQ54j-Cl0NHfQN-5024" value="33" style="rounded=0;whiteSpace=wrap;html=1;fontSize=32;" parent="JShE3p9Th1xtFd2ULkAl-2" vertex="1">
          <mxGeometry x="1040" y="720" width="330" height="330" as="geometry" />
        </mxCell>
        <mxCell id="761dnnyQ54j-Cl0NHfQN-5025" value="16" style="rounded=0;whiteSpace=wrap;html=1;fontSize=32;" parent="JShE3p9Th1xtFd2ULkAl-2" vertex="1">
          <mxGeometry x="1040" y="560" width="160" height="160" as="geometry" />
        </mxCell>
        <mxCell id="761dnnyQ54j-Cl0NHfQN-5026" value="17" style="rounded=0;whiteSpace=wrap;html=1;fontSize=32;" parent="JShE3p9Th1xtFd2ULkAl-2" vertex="1">
          <mxGeometry x="1200" y="550" width="170" height="170" as="geometry" />
        </mxCell>
        <mxCell id="761dnnyQ54j-Cl0NHfQN-5027" value="12" style="rounded=0;whiteSpace=wrap;html=1;fontSize=32;" parent="JShE3p9Th1xtFd2ULkAl-2" vertex="1">
          <mxGeometry x="320" y="440" width="120" height="120" as="geometry" />
        </mxCell>
        <mxCell id="761dnnyQ54j-Cl0NHfQN-5028" value="56" style="rounded=0;whiteSpace=wrap;html=1;fontSize=32;" parent="JShE3p9Th1xtFd2ULkAl-2" vertex="1">
          <mxGeometry x="440" width="560" height="560" as="geometry" />
        </mxCell>
        <mxCell id="761dnnyQ54j-Cl0NHfQN-5029" value="19" style="rounded=0;whiteSpace=wrap;html=1;fontSize=32;" parent="JShE3p9Th1xtFd2ULkAl-2" vertex="1">
          <mxGeometry x="1000" y="370" width="190" height="190" as="geometry" />
        </mxCell>
        <mxCell id="761dnnyQ54j-Cl0NHfQN-5030" value="1" style="rounded=0;whiteSpace=wrap;html=1;fontSize=32;" parent="JShE3p9Th1xtFd2ULkAl-2" vertex="1">
          <mxGeometry x="1190" y="550" width="10" height="10" as="geometry" />
        </mxCell>
        <mxCell id="761dnnyQ54j-Cl0NHfQN-5031" value="18" style="rounded=0;whiteSpace=wrap;html=1;fontSize=32;" parent="JShE3p9Th1xtFd2ULkAl-2" vertex="1">
          <mxGeometry x="1190" y="370" width="180" height="180" as="geometry" />
        </mxCell>
        <mxCell id="761dnnyQ54j-Cl0NHfQN-5032" value="37" style="rounded=0;whiteSpace=wrap;html=1;fontSize=32;" parent="JShE3p9Th1xtFd2ULkAl-2" vertex="1">
          <mxGeometry x="1000" width="370" height="370" as="geometry" />
        </mxCell>
        <mxCell id="761dnnyQ54j-Cl0NHfQN-5033" value="44" style="rounded=0;whiteSpace=wrap;html=1;fontSize=32;" parent="JShE3p9Th1xtFd2ULkAl-2" vertex="1">
          <mxGeometry width="440" height="440" as="geometry" />
        </mxCell>
        <mxCell id="JShE3p9Th1xtFd2ULkAl-3" value="" style="group;flipV=1;" vertex="1" connectable="0" parent="1">
          <mxGeometry x="1450" y="2690" width="1370" height="1280" as="geometry" />
        </mxCell>
        <mxCell id="761dnnyQ54j-Cl0NHfQN-11350" value="39" style="rounded=0;whiteSpace=wrap;html=1;fontSize=32;" parent="JShE3p9Th1xtFd2ULkAl-3" vertex="1">
          <mxGeometry y="890" width="390" height="390" as="geometry" />
        </mxCell>
        <mxCell id="761dnnyQ54j-Cl0NHfQN-11351" value="44" style="rounded=0;whiteSpace=wrap;html=1;fontSize=32;" parent="JShE3p9Th1xtFd2ULkAl-3" vertex="1">
          <mxGeometry x="390" y="840" width="440" height="440" as="geometry" />
        </mxCell>
        <mxCell id="761dnnyQ54j-Cl0NHfQN-11352" value="34" style="rounded=0;whiteSpace=wrap;html=1;fontSize=32;" parent="JShE3p9Th1xtFd2ULkAl-3" vertex="1">
          <mxGeometry y="550" width="340" height="340" as="geometry" />
        </mxCell>
        <mxCell id="761dnnyQ54j-Cl0NHfQN-11353" value="5" style="rounded=0;whiteSpace=wrap;html=1;fontSize=32;" parent="JShE3p9Th1xtFd2ULkAl-3" vertex="1">
          <mxGeometry x="340" y="840" width="50" height="50" as="geometry" />
        </mxCell>
        <mxCell id="761dnnyQ54j-Cl0NHfQN-11354" value="54" style="rounded=0;whiteSpace=wrap;html=1;fontSize=32;" parent="JShE3p9Th1xtFd2ULkAl-3" vertex="1">
          <mxGeometry x="830" y="740" width="540" height="540" as="geometry" />
        </mxCell>
        <mxCell id="761dnnyQ54j-Cl0NHfQN-11355" value="29" style="rounded=0;whiteSpace=wrap;html=1;fontSize=32;" parent="JShE3p9Th1xtFd2ULkAl-3" vertex="1">
          <mxGeometry x="340" y="550" width="290" height="290" as="geometry" />
        </mxCell>
        <mxCell id="761dnnyQ54j-Cl0NHfQN-11356" value="20" style="rounded=0;whiteSpace=wrap;html=1;fontSize=32;" parent="JShE3p9Th1xtFd2ULkAl-3" vertex="1">
          <mxGeometry x="630" y="640" width="200" height="200" as="geometry" />
        </mxCell>
        <mxCell id="761dnnyQ54j-Cl0NHfQN-11357" value="22" style="rounded=0;whiteSpace=wrap;html=1;fontSize=32;" parent="JShE3p9Th1xtFd2ULkAl-3" vertex="1">
          <mxGeometry x="830" y="520" width="220" height="220" as="geometry" />
        </mxCell>
        <mxCell id="761dnnyQ54j-Cl0NHfQN-11358" value="9" style="rounded=0;whiteSpace=wrap;html=1;fontSize=32;" parent="JShE3p9Th1xtFd2ULkAl-3" vertex="1">
          <mxGeometry x="630" y="550" width="90" height="90" as="geometry" />
        </mxCell>
        <mxCell id="761dnnyQ54j-Cl0NHfQN-11359" value="11" style="rounded=0;whiteSpace=wrap;html=1;fontSize=32;" parent="JShE3p9Th1xtFd2ULkAl-3" vertex="1">
          <mxGeometry x="720" y="530" width="110" height="110" as="geometry" />
        </mxCell>
        <mxCell id="761dnnyQ54j-Cl0NHfQN-11360" value="32" style="rounded=0;whiteSpace=wrap;html=1;fontSize=32;" parent="JShE3p9Th1xtFd2ULkAl-3" vertex="1">
          <mxGeometry x="1050" y="420" width="320" height="320" as="geometry" />
        </mxCell>
        <mxCell id="761dnnyQ54j-Cl0NHfQN-11361" value="55" style="rounded=0;whiteSpace=wrap;html=1;fontSize=32;" parent="JShE3p9Th1xtFd2ULkAl-3" vertex="1">
          <mxGeometry width="550" height="550" as="geometry" />
        </mxCell>
        <mxCell id="761dnnyQ54j-Cl0NHfQN-11362" value="15" style="rounded=0;whiteSpace=wrap;html=1;fontSize=32;" parent="JShE3p9Th1xtFd2ULkAl-3" vertex="1">
          <mxGeometry x="550" y="400" width="150" height="150" as="geometry" />
        </mxCell>
        <mxCell id="761dnnyQ54j-Cl0NHfQN-11363" value="2" style="rounded=0;whiteSpace=wrap;html=1;fontSize=32;" parent="JShE3p9Th1xtFd2ULkAl-3" vertex="1">
          <mxGeometry x="700" y="530" width="20" height="20" as="geometry" />
        </mxCell>
        <mxCell id="761dnnyQ54j-Cl0NHfQN-11364" value="13" style="rounded=0;whiteSpace=wrap;html=1;fontSize=32;" parent="JShE3p9Th1xtFd2ULkAl-3" vertex="1">
          <mxGeometry x="700" y="400" width="130" height="130" as="geometry" />
        </mxCell>
        <mxCell id="761dnnyQ54j-Cl0NHfQN-11365" value="12" style="rounded=0;whiteSpace=wrap;html=1;fontSize=32;" parent="JShE3p9Th1xtFd2ULkAl-3" vertex="1">
          <mxGeometry x="830" y="400" width="120" height="120" as="geometry" />
        </mxCell>
        <mxCell id="761dnnyQ54j-Cl0NHfQN-11366" value="10" style="rounded=0;whiteSpace=wrap;html=1;fontSize=32;" parent="JShE3p9Th1xtFd2ULkAl-3" vertex="1">
          <mxGeometry x="950" y="420" width="100" height="100" as="geometry" />
        </mxCell>
        <mxCell id="761dnnyQ54j-Cl0NHfQN-11367" value="42" style="rounded=0;whiteSpace=wrap;html=1;fontSize=32;" parent="JShE3p9Th1xtFd2ULkAl-3" vertex="1">
          <mxGeometry x="950" width="420" height="420" as="geometry" />
        </mxCell>
        <mxCell id="761dnnyQ54j-Cl0NHfQN-11368" value="40" style="rounded=0;whiteSpace=wrap;html=1;fontSize=32;" parent="JShE3p9Th1xtFd2ULkAl-3" vertex="1">
          <mxGeometry x="550" width="400" height="400" as="geometry" />
        </mxCell>
        <mxCell id="JShE3p9Th1xtFd2ULkAl-4" value="" style="group;flipV=1;" vertex="1" connectable="0" parent="1">
          <mxGeometry x="1450" y="4130" width="1370" height="1160" as="geometry" />
        </mxCell>
        <mxCell id="761dnnyQ54j-Cl0NHfQN-17880" value="55" style="rounded=0;whiteSpace=wrap;html=1;fontSize=32;" parent="JShE3p9Th1xtFd2ULkAl-4" vertex="1">
          <mxGeometry y="610" width="550" height="550" as="geometry" />
        </mxCell>
        <mxCell id="761dnnyQ54j-Cl0NHfQN-17881" value="38" style="rounded=0;whiteSpace=wrap;html=1;fontSize=32;" parent="JShE3p9Th1xtFd2ULkAl-4" vertex="1">
          <mxGeometry x="550" y="780" width="380" height="380" as="geometry" />
        </mxCell>
        <mxCell id="761dnnyQ54j-Cl0NHfQN-17882" value="44" style="rounded=0;whiteSpace=wrap;html=1;fontSize=32;" parent="JShE3p9Th1xtFd2ULkAl-4" vertex="1">
          <mxGeometry x="930" y="720" width="440" height="440" as="geometry" />
        </mxCell>
        <mxCell id="761dnnyQ54j-Cl0NHfQN-17883" value="11" style="rounded=0;whiteSpace=wrap;html=1;fontSize=32;" parent="JShE3p9Th1xtFd2ULkAl-4" vertex="1">
          <mxGeometry x="550" y="670" width="110" height="110" as="geometry" />
        </mxCell>
        <mxCell id="761dnnyQ54j-Cl0NHfQN-17884" value="12" style="rounded=0;whiteSpace=wrap;html=1;fontSize=32;" parent="JShE3p9Th1xtFd2ULkAl-4" vertex="1">
          <mxGeometry x="660" y="660" width="120" height="120" as="geometry" />
        </mxCell>
        <mxCell id="761dnnyQ54j-Cl0NHfQN-17885" value="6" style="rounded=0;whiteSpace=wrap;html=1;fontSize=32;" parent="JShE3p9Th1xtFd2ULkAl-4" vertex="1">
          <mxGeometry x="550" y="610" width="60" height="60" as="geometry" />
        </mxCell>
        <mxCell id="761dnnyQ54j-Cl0NHfQN-17886" value="4" style="rounded=0;whiteSpace=wrap;html=1;fontSize=32;" parent="JShE3p9Th1xtFd2ULkAl-4" vertex="1">
          <mxGeometry x="610" y="630" width="40" height="40" as="geometry" />
        </mxCell>
        <mxCell id="761dnnyQ54j-Cl0NHfQN-17887" value="1" style="rounded=0;whiteSpace=wrap;html=1;fontSize=32;" parent="JShE3p9Th1xtFd2ULkAl-4" vertex="1">
          <mxGeometry x="650" y="660" width="10" height="10" as="geometry" />
        </mxCell>
        <mxCell id="761dnnyQ54j-Cl0NHfQN-17888" value="15" style="rounded=0;whiteSpace=wrap;html=1;fontSize=32;" parent="JShE3p9Th1xtFd2ULkAl-4" vertex="1">
          <mxGeometry x="780" y="630" width="150" height="150" as="geometry" />
        </mxCell>
        <mxCell id="761dnnyQ54j-Cl0NHfQN-17889" value="3" style="rounded=0;whiteSpace=wrap;html=1;fontSize=32;" parent="JShE3p9Th1xtFd2ULkAl-4" vertex="1">
          <mxGeometry x="650" y="630" width="30" height="30" as="geometry" />
        </mxCell>
        <mxCell id="761dnnyQ54j-Cl0NHfQN-17890" value="10" style="rounded=0;whiteSpace=wrap;html=1;fontSize=32;" parent="JShE3p9Th1xtFd2ULkAl-4" vertex="1">
          <mxGeometry x="680" y="560" width="100" height="100" as="geometry" />
        </mxCell>
        <mxCell id="761dnnyQ54j-Cl0NHfQN-17891" value="7" style="rounded=0;whiteSpace=wrap;html=1;fontSize=32;" parent="JShE3p9Th1xtFd2ULkAl-4" vertex="1">
          <mxGeometry x="610" y="560" width="70" height="70" as="geometry" />
        </mxCell>
        <mxCell id="761dnnyQ54j-Cl0NHfQN-17892" value="9" style="rounded=0;whiteSpace=wrap;html=1;fontSize=32;" parent="JShE3p9Th1xtFd2ULkAl-4" vertex="1">
          <mxGeometry x="930" y="630" width="90" height="90" as="geometry" />
        </mxCell>
        <mxCell id="761dnnyQ54j-Cl0NHfQN-17893" value="35" style="rounded=0;whiteSpace=wrap;html=1;fontSize=32;" parent="JShE3p9Th1xtFd2ULkAl-4" vertex="1">
          <mxGeometry x="1020" y="370" width="350" height="350" as="geometry" />
        </mxCell>
        <mxCell id="761dnnyQ54j-Cl0NHfQN-17894" value="24" style="rounded=0;whiteSpace=wrap;html=1;fontSize=32;" parent="JShE3p9Th1xtFd2ULkAl-4" vertex="1">
          <mxGeometry x="780" y="390" width="240" height="240" as="geometry" />
        </mxCell>
        <mxCell id="761dnnyQ54j-Cl0NHfQN-17895" value="61" style="rounded=0;whiteSpace=wrap;html=1;fontSize=32;" parent="JShE3p9Th1xtFd2ULkAl-4" vertex="1">
          <mxGeometry width="610" height="610" as="geometry" />
        </mxCell>
        <mxCell id="761dnnyQ54j-Cl0NHfQN-17896" value="17" style="rounded=0;whiteSpace=wrap;html=1;fontSize=32;" parent="JShE3p9Th1xtFd2ULkAl-4" vertex="1">
          <mxGeometry x="610" y="390" width="170" height="170" as="geometry" />
        </mxCell>
        <mxCell id="761dnnyQ54j-Cl0NHfQN-17897" value="39" style="rounded=0;whiteSpace=wrap;html=1;fontSize=32;" parent="JShE3p9Th1xtFd2ULkAl-4" vertex="1">
          <mxGeometry x="610" width="390" height="390" as="geometry" />
        </mxCell>
        <mxCell id="761dnnyQ54j-Cl0NHfQN-17898" value="2" style="rounded=0;whiteSpace=wrap;html=1;fontSize=32;" parent="JShE3p9Th1xtFd2ULkAl-4" vertex="1">
          <mxGeometry x="1000" y="370" width="20" height="20" as="geometry" />
        </mxCell>
        <mxCell id="761dnnyQ54j-Cl0NHfQN-17899" value="37" style="rounded=0;whiteSpace=wrap;html=1;fontSize=32;" parent="JShE3p9Th1xtFd2ULkAl-4" vertex="1">
          <mxGeometry x="1000" width="370" height="370" as="geometry" />
        </mxCell>
        <mxCell id="JShE3p9Th1xtFd2ULkAl-5" value="" style="group;flipV=1;" vertex="1" connectable="0" parent="1">
          <mxGeometry x="1450" y="5490" width="1370" height="1130" as="geometry" />
        </mxCell>
        <mxCell id="761dnnyQ54j-Cl0NHfQN-23154" value="28" style="rounded=0;whiteSpace=wrap;html=1;fontSize=32;" parent="JShE3p9Th1xtFd2ULkAl-5" vertex="1">
          <mxGeometry y="850" width="280" height="280" as="geometry" />
        </mxCell>
        <mxCell id="761dnnyQ54j-Cl0NHfQN-23155" value="22" style="rounded=0;whiteSpace=wrap;html=1;fontSize=32;" parent="JShE3p9Th1xtFd2ULkAl-5" vertex="1">
          <mxGeometry x="280" y="910" width="220" height="220" as="geometry" />
        </mxCell>
        <mxCell id="761dnnyQ54j-Cl0NHfQN-23156" value="42" style="rounded=0;whiteSpace=wrap;html=1;fontSize=32;" parent="JShE3p9Th1xtFd2ULkAl-5" vertex="1">
          <mxGeometry x="500" y="710" width="420" height="420" as="geometry" />
        </mxCell>
        <mxCell id="761dnnyQ54j-Cl0NHfQN-23157" value="7" style="rounded=0;whiteSpace=wrap;html=1;fontSize=32;" parent="JShE3p9Th1xtFd2ULkAl-5" vertex="1">
          <mxGeometry x="280" y="840" width="70" height="70" as="geometry" />
        </mxCell>
        <mxCell id="761dnnyQ54j-Cl0NHfQN-23158" value="15" style="rounded=0;whiteSpace=wrap;html=1;fontSize=32;" parent="JShE3p9Th1xtFd2ULkAl-5" vertex="1">
          <mxGeometry x="350" y="760" width="150" height="150" as="geometry" />
        </mxCell>
        <mxCell id="761dnnyQ54j-Cl0NHfQN-23159" value="27" style="rounded=0;whiteSpace=wrap;html=1;fontSize=32;" parent="JShE3p9Th1xtFd2ULkAl-5" vertex="1">
          <mxGeometry y="580" width="270" height="270" as="geometry" />
        </mxCell>
        <mxCell id="761dnnyQ54j-Cl0NHfQN-23160" value="1" style="rounded=0;whiteSpace=wrap;html=1;fontSize=32;" parent="JShE3p9Th1xtFd2ULkAl-5" vertex="1">
          <mxGeometry x="270" y="840" width="10" height="10" as="geometry" />
        </mxCell>
        <mxCell id="761dnnyQ54j-Cl0NHfQN-23161" value="8" style="rounded=0;whiteSpace=wrap;html=1;fontSize=32;" parent="JShE3p9Th1xtFd2ULkAl-5" vertex="1">
          <mxGeometry x="270" y="760" width="80" height="80" as="geometry" />
        </mxCell>
        <mxCell id="761dnnyQ54j-Cl0NHfQN-23162" value="18" style="rounded=0;whiteSpace=wrap;html=1;fontSize=32;" parent="JShE3p9Th1xtFd2ULkAl-5" vertex="1">
          <mxGeometry x="270" y="580" width="180" height="180" as="geometry" />
        </mxCell>
        <mxCell id="761dnnyQ54j-Cl0NHfQN-23163" value="5" style="rounded=0;whiteSpace=wrap;html=1;fontSize=32;" parent="JShE3p9Th1xtFd2ULkAl-5" vertex="1">
          <mxGeometry x="450" y="710" width="50" height="50" as="geometry" />
        </mxCell>
        <mxCell id="761dnnyQ54j-Cl0NHfQN-23164" value="45" style="rounded=0;whiteSpace=wrap;html=1;fontSize=32;" parent="JShE3p9Th1xtFd2ULkAl-5" vertex="1">
          <mxGeometry x="920" y="680" width="450" height="450" as="geometry" />
        </mxCell>
        <mxCell id="761dnnyQ54j-Cl0NHfQN-23165" value="13" style="rounded=0;whiteSpace=wrap;html=1;fontSize=32;" parent="JShE3p9Th1xtFd2ULkAl-5" vertex="1">
          <mxGeometry x="450" y="580" width="130" height="130" as="geometry" />
        </mxCell>
        <mxCell id="761dnnyQ54j-Cl0NHfQN-23166" value="31" style="rounded=0;whiteSpace=wrap;html=1;fontSize=32;" parent="JShE3p9Th1xtFd2ULkAl-5" vertex="1">
          <mxGeometry x="580" y="400" width="310" height="310" as="geometry" />
        </mxCell>
        <mxCell id="761dnnyQ54j-Cl0NHfQN-23167" value="3" style="rounded=0;whiteSpace=wrap;html=1;fontSize=32;" parent="JShE3p9Th1xtFd2ULkAl-5" vertex="1">
          <mxGeometry x="890" y="680" width="30" height="30" as="geometry" />
        </mxCell>
        <mxCell id="761dnnyQ54j-Cl0NHfQN-23168" value="19" style="rounded=0;whiteSpace=wrap;html=1;fontSize=32;" parent="JShE3p9Th1xtFd2ULkAl-5" vertex="1">
          <mxGeometry x="890" y="490" width="190" height="190" as="geometry" />
        </mxCell>
        <mxCell id="761dnnyQ54j-Cl0NHfQN-23169" value="29" style="rounded=0;whiteSpace=wrap;html=1;fontSize=32;" parent="JShE3p9Th1xtFd2ULkAl-5" vertex="1">
          <mxGeometry x="1080" y="390" width="290" height="290" as="geometry" />
        </mxCell>
        <mxCell id="761dnnyQ54j-Cl0NHfQN-23170" value="9" style="rounded=0;whiteSpace=wrap;html=1;fontSize=32;" parent="JShE3p9Th1xtFd2ULkAl-5" vertex="1">
          <mxGeometry x="890" y="400" width="90" height="90" as="geometry" />
        </mxCell>
        <mxCell id="761dnnyQ54j-Cl0NHfQN-23171" value="10" style="rounded=0;whiteSpace=wrap;html=1;fontSize=32;" parent="JShE3p9Th1xtFd2ULkAl-5" vertex="1">
          <mxGeometry x="980" y="390" width="100" height="100" as="geometry" />
        </mxCell>
        <mxCell id="761dnnyQ54j-Cl0NHfQN-23172" value="58" style="rounded=0;whiteSpace=wrap;html=1;fontSize=32;" parent="JShE3p9Th1xtFd2ULkAl-5" vertex="1">
          <mxGeometry width="580" height="580" as="geometry" />
        </mxCell>
        <mxCell id="761dnnyQ54j-Cl0NHfQN-23173" value="40" style="rounded=0;whiteSpace=wrap;html=1;fontSize=32;" parent="JShE3p9Th1xtFd2ULkAl-5" vertex="1">
          <mxGeometry x="580" width="400" height="400" as="geometry" />
        </mxCell>
        <mxCell id="761dnnyQ54j-Cl0NHfQN-23174" value="39" style="rounded=0;whiteSpace=wrap;html=1;fontSize=32;" parent="JShE3p9Th1xtFd2ULkAl-5" vertex="1">
          <mxGeometry x="980" width="390" height="390" as="geometry" />
        </mxCell>
        <mxCell id="JShE3p9Th1xtFd2ULkAl-6" value="" style="group;flipV=1;" vertex="1" connectable="0" parent="1">
          <mxGeometry x="1470" y="6870" width="1370" height="1190" as="geometry" />
        </mxCell>
        <mxCell id="761dnnyQ54j-Cl0NHfQN-23264" value="48" style="rounded=0;whiteSpace=wrap;html=1;fontSize=32;" parent="JShE3p9Th1xtFd2ULkAl-6" vertex="1">
          <mxGeometry y="710" width="480" height="480" as="geometry" />
        </mxCell>
        <mxCell id="761dnnyQ54j-Cl0NHfQN-23265" value="25" style="rounded=0;whiteSpace=wrap;html=1;fontSize=32;" parent="JShE3p9Th1xtFd2ULkAl-6" vertex="1">
          <mxGeometry x="480" y="940" width="250" height="250" as="geometry" />
        </mxCell>
        <mxCell id="761dnnyQ54j-Cl0NHfQN-23266" value="21" style="rounded=0;whiteSpace=wrap;html=1;fontSize=32;" parent="JShE3p9Th1xtFd2ULkAl-6" vertex="1">
          <mxGeometry x="730" y="980" width="210" height="210" as="geometry" />
        </mxCell>
        <mxCell id="761dnnyQ54j-Cl0NHfQN-23267" value="19" style="rounded=0;whiteSpace=wrap;html=1;fontSize=32;" parent="JShE3p9Th1xtFd2ULkAl-6" vertex="1">
          <mxGeometry x="940" y="1000" width="190" height="190" as="geometry" />
        </mxCell>
        <mxCell id="761dnnyQ54j-Cl0NHfQN-23268" value="24" style="rounded=0;whiteSpace=wrap;html=1;fontSize=32;" parent="JShE3p9Th1xtFd2ULkAl-6" vertex="1">
          <mxGeometry x="1130" y="950" width="240" height="240" as="geometry" />
        </mxCell>
        <mxCell id="761dnnyQ54j-Cl0NHfQN-23269" value="2" style="rounded=0;whiteSpace=wrap;html=1;fontSize=32;" parent="JShE3p9Th1xtFd2ULkAl-6" vertex="1">
          <mxGeometry x="940" y="980" width="20" height="20" as="geometry" />
        </mxCell>
        <mxCell id="761dnnyQ54j-Cl0NHfQN-23270" value="12" style="rounded=0;whiteSpace=wrap;html=1;fontSize=32;" parent="JShE3p9Th1xtFd2ULkAl-6" vertex="1">
          <mxGeometry x="960" y="880" width="120" height="120" as="geometry" />
        </mxCell>
        <mxCell id="761dnnyQ54j-Cl0NHfQN-23271" value="5" style="rounded=0;whiteSpace=wrap;html=1;fontSize=32;" parent="JShE3p9Th1xtFd2ULkAl-6" vertex="1">
          <mxGeometry x="1080" y="950" width="50" height="50" as="geometry" />
        </mxCell>
        <mxCell id="761dnnyQ54j-Cl0NHfQN-23272" value="4" style="rounded=0;whiteSpace=wrap;html=1;fontSize=32;" parent="JShE3p9Th1xtFd2ULkAl-6" vertex="1">
          <mxGeometry x="730" y="940" width="40" height="40" as="geometry" />
        </mxCell>
        <mxCell id="761dnnyQ54j-Cl0NHfQN-23273" value="9" style="rounded=0;whiteSpace=wrap;html=1;fontSize=32;" parent="JShE3p9Th1xtFd2ULkAl-6" vertex="1">
          <mxGeometry x="770" y="890" width="90" height="90" as="geometry" />
        </mxCell>
        <mxCell id="761dnnyQ54j-Cl0NHfQN-23274" value="10" style="rounded=0;whiteSpace=wrap;html=1;fontSize=32;" parent="JShE3p9Th1xtFd2ULkAl-6" vertex="1">
          <mxGeometry x="860" y="880" width="100" height="100" as="geometry" />
        </mxCell>
        <mxCell id="761dnnyQ54j-Cl0NHfQN-23275" value="23" style="rounded=0;whiteSpace=wrap;html=1;fontSize=32;" parent="JShE3p9Th1xtFd2ULkAl-6" vertex="1">
          <mxGeometry x="480" y="710" width="230" height="230" as="geometry" />
        </mxCell>
        <mxCell id="761dnnyQ54j-Cl0NHfQN-23276" value="6" style="rounded=0;whiteSpace=wrap;html=1;fontSize=32;" parent="JShE3p9Th1xtFd2ULkAl-6" vertex="1">
          <mxGeometry x="710" y="880" width="60" height="60" as="geometry" />
        </mxCell>
        <mxCell id="761dnnyQ54j-Cl0NHfQN-23277" value="1" style="rounded=0;whiteSpace=wrap;html=1;fontSize=32;" parent="JShE3p9Th1xtFd2ULkAl-6" vertex="1">
          <mxGeometry x="770" y="880" width="10" height="10" as="geometry" />
        </mxCell>
        <mxCell id="761dnnyQ54j-Cl0NHfQN-23278" value="8" style="rounded=0;whiteSpace=wrap;html=1;fontSize=32;" parent="JShE3p9Th1xtFd2ULkAl-6" vertex="1">
          <mxGeometry x="780" y="810" width="80" height="80" as="geometry" />
        </mxCell>
        <mxCell id="761dnnyQ54j-Cl0NHfQN-23279" value="7" style="rounded=0;whiteSpace=wrap;html=1;fontSize=32;" parent="JShE3p9Th1xtFd2ULkAl-6" vertex="1">
          <mxGeometry x="710" y="810" width="70" height="70" as="geometry" />
        </mxCell>
        <mxCell id="761dnnyQ54j-Cl0NHfQN-23280" value="29" style="rounded=0;whiteSpace=wrap;html=1;fontSize=32;" parent="JShE3p9Th1xtFd2ULkAl-6" vertex="1">
          <mxGeometry x="1080" y="660" width="290" height="290" as="geometry" />
        </mxCell>
        <mxCell id="761dnnyQ54j-Cl0NHfQN-23281" value="22" style="rounded=0;whiteSpace=wrap;html=1;fontSize=32;" parent="JShE3p9Th1xtFd2ULkAl-6" vertex="1">
          <mxGeometry x="860" y="660" width="220" height="220" as="geometry" />
        </mxCell>
        <mxCell id="761dnnyQ54j-Cl0NHfQN-23282" value="15" style="rounded=0;whiteSpace=wrap;html=1;fontSize=32;" parent="JShE3p9Th1xtFd2ULkAl-6" vertex="1">
          <mxGeometry x="710" y="660" width="150" height="150" as="geometry" />
        </mxCell>
        <mxCell id="761dnnyQ54j-Cl0NHfQN-23283" value="71" style="rounded=0;whiteSpace=wrap;html=1;fontSize=32;" parent="JShE3p9Th1xtFd2ULkAl-6" vertex="1">
          <mxGeometry width="710" height="710" as="geometry" />
        </mxCell>
        <mxCell id="761dnnyQ54j-Cl0NHfQN-23284" value="66" style="rounded=0;whiteSpace=wrap;html=1;fontSize=32;" parent="JShE3p9Th1xtFd2ULkAl-6" vertex="1">
          <mxGeometry x="710" width="660" height="660" as="geometry" />
        </mxCell>
        <mxCell id="JShE3p9Th1xtFd2ULkAl-7" value="" style="group;flipV=1;" vertex="1" connectable="0" parent="1">
          <mxGeometry x="1460" y="8190" width="1370" height="1100" as="geometry" />
        </mxCell>
        <mxCell id="761dnnyQ54j-Cl0NHfQN-44242" value="49" style="rounded=0;whiteSpace=wrap;html=1;fontSize=32;" parent="JShE3p9Th1xtFd2ULkAl-7" vertex="1">
          <mxGeometry y="610" width="490" height="490" as="geometry" />
        </mxCell>
        <mxCell id="761dnnyQ54j-Cl0NHfQN-44243" value="27" style="rounded=0;whiteSpace=wrap;html=1;fontSize=32;" parent="JShE3p9Th1xtFd2ULkAl-7" vertex="1">
          <mxGeometry x="490" y="830" width="270" height="270" as="geometry" />
        </mxCell>
        <mxCell id="761dnnyQ54j-Cl0NHfQN-44244" value="32" style="rounded=0;whiteSpace=wrap;html=1;fontSize=32;" parent="JShE3p9Th1xtFd2ULkAl-7" vertex="1">
          <mxGeometry x="760" y="780" width="320" height="320" as="geometry" />
        </mxCell>
        <mxCell id="761dnnyQ54j-Cl0NHfQN-44245" value="22" style="rounded=0;whiteSpace=wrap;html=1;fontSize=32;" parent="JShE3p9Th1xtFd2ULkAl-7" vertex="1">
          <mxGeometry x="490" y="610" width="220" height="220" as="geometry" />
        </mxCell>
        <mxCell id="761dnnyQ54j-Cl0NHfQN-44246" value="5" style="rounded=0;whiteSpace=wrap;html=1;fontSize=32;" parent="JShE3p9Th1xtFd2ULkAl-7" vertex="1">
          <mxGeometry x="710" y="780" width="50" height="50" as="geometry" />
        </mxCell>
        <mxCell id="761dnnyQ54j-Cl0NHfQN-44247" value="29" style="rounded=0;whiteSpace=wrap;html=1;fontSize=32;" parent="JShE3p9Th1xtFd2ULkAl-7" vertex="1">
          <mxGeometry x="1080" y="810" width="290" height="290" as="geometry" />
        </mxCell>
        <mxCell id="761dnnyQ54j-Cl0NHfQN-44248" value="3" style="rounded=0;whiteSpace=wrap;html=1;fontSize=32;" parent="JShE3p9Th1xtFd2ULkAl-7" vertex="1">
          <mxGeometry x="1080" y="780" width="30" height="30" as="geometry" />
        </mxCell>
        <mxCell id="761dnnyQ54j-Cl0NHfQN-44249" value="26" style="rounded=0;whiteSpace=wrap;html=1;fontSize=32;" parent="JShE3p9Th1xtFd2ULkAl-7" vertex="1">
          <mxGeometry x="1110" y="550" width="260" height="260" as="geometry" />
        </mxCell>
        <mxCell id="761dnnyQ54j-Cl0NHfQN-44250" value="17" style="rounded=0;whiteSpace=wrap;html=1;fontSize=32;" parent="JShE3p9Th1xtFd2ULkAl-7" vertex="1">
          <mxGeometry x="710" y="610" width="170" height="170" as="geometry" />
        </mxCell>
        <mxCell id="761dnnyQ54j-Cl0NHfQN-44251" value="23" style="rounded=0;whiteSpace=wrap;html=1;fontSize=32;" parent="JShE3p9Th1xtFd2ULkAl-7" vertex="1">
          <mxGeometry x="880" y="550" width="230" height="230" as="geometry" />
        </mxCell>
        <mxCell id="761dnnyQ54j-Cl0NHfQN-44252" value="61" style="rounded=0;whiteSpace=wrap;html=1;fontSize=32;" parent="JShE3p9Th1xtFd2ULkAl-7" vertex="1">
          <mxGeometry width="610" height="610" as="geometry" />
        </mxCell>
        <mxCell id="761dnnyQ54j-Cl0NHfQN-44253" value="21" style="rounded=0;whiteSpace=wrap;html=1;fontSize=32;" parent="JShE3p9Th1xtFd2ULkAl-7" vertex="1">
          <mxGeometry x="610" y="400" width="210" height="210" as="geometry" />
        </mxCell>
        <mxCell id="761dnnyQ54j-Cl0NHfQN-44254" value="6" style="rounded=0;whiteSpace=wrap;html=1;fontSize=32;" parent="JShE3p9Th1xtFd2ULkAl-7" vertex="1">
          <mxGeometry x="820" y="550" width="60" height="60" as="geometry" />
        </mxCell>
        <mxCell id="761dnnyQ54j-Cl0NHfQN-44255" value="15" style="rounded=0;whiteSpace=wrap;html=1;fontSize=32;" parent="JShE3p9Th1xtFd2ULkAl-7" vertex="1">
          <mxGeometry x="820" y="400" width="150" height="150" as="geometry" />
        </mxCell>
        <mxCell id="761dnnyQ54j-Cl0NHfQN-44256" value="11" style="rounded=0;whiteSpace=wrap;html=1;fontSize=32;" parent="JShE3p9Th1xtFd2ULkAl-7" vertex="1">
          <mxGeometry x="970" y="440" width="110" height="110" as="geometry" />
        </mxCell>
        <mxCell id="761dnnyQ54j-Cl0NHfQN-44257" value="10" style="rounded=0;whiteSpace=wrap;html=1;fontSize=32;" parent="JShE3p9Th1xtFd2ULkAl-7" vertex="1">
          <mxGeometry x="1080" y="450" width="100" height="100" as="geometry" />
        </mxCell>
        <mxCell id="761dnnyQ54j-Cl0NHfQN-44258" value="19" style="rounded=0;whiteSpace=wrap;html=1;fontSize=32;" parent="JShE3p9Th1xtFd2ULkAl-7" vertex="1">
          <mxGeometry x="1180" y="360" width="190" height="190" as="geometry" />
        </mxCell>
        <mxCell id="761dnnyQ54j-Cl0NHfQN-44259" value="1" style="rounded=0;whiteSpace=wrap;html=1;fontSize=32;" parent="JShE3p9Th1xtFd2ULkAl-7" vertex="1">
          <mxGeometry x="1080" y="440" width="10" height="10" as="geometry" />
        </mxCell>
        <mxCell id="761dnnyQ54j-Cl0NHfQN-44260" value="9" style="rounded=0;whiteSpace=wrap;html=1;fontSize=32;" parent="JShE3p9Th1xtFd2ULkAl-7" vertex="1">
          <mxGeometry x="1090" y="360" width="90" height="90" as="geometry" />
        </mxCell>
        <mxCell id="761dnnyQ54j-Cl0NHfQN-44261" value="4" style="rounded=0;whiteSpace=wrap;html=1;fontSize=32;" parent="JShE3p9Th1xtFd2ULkAl-7" vertex="1">
          <mxGeometry x="970" y="400" width="40" height="40" as="geometry" />
        </mxCell>
        <mxCell id="761dnnyQ54j-Cl0NHfQN-44262" value="8" style="rounded=0;whiteSpace=wrap;html=1;fontSize=32;" parent="JShE3p9Th1xtFd2ULkAl-7" vertex="1">
          <mxGeometry x="1010" y="360" width="80" height="80" as="geometry" />
        </mxCell>
        <mxCell id="761dnnyQ54j-Cl0NHfQN-44263" value="40" style="rounded=0;whiteSpace=wrap;html=1;fontSize=32;" parent="JShE3p9Th1xtFd2ULkAl-7" vertex="1">
          <mxGeometry x="610" width="400" height="400" as="geometry" />
        </mxCell>
        <mxCell id="761dnnyQ54j-Cl0NHfQN-44264" value="36" style="rounded=0;whiteSpace=wrap;html=1;fontSize=32;" parent="JShE3p9Th1xtFd2ULkAl-7" vertex="1">
          <mxGeometry x="1010" width="360" height="360" as="geometry" />
        </mxCell>
      </root>
    </mxGraphModel>
  </diagram>
</mxfile>
